<mxfile host="65bd71144e">
    <diagram id="r2RhsIBvut_MYkIMPwR0" name="Page-1">
        <mxGraphModel dx="1957" dy="2890" grid="1" gridSize="21" guides="1" tooltips="1" connect="1" arrows="1" fold="1" page="1" pageScale="1" pageWidth="827" pageHeight="1169" background="#CCCCCC" math="0" shadow="0">
            <root>
                <mxCell id="0"/>
                <mxCell id="1" parent="0"/>
                <mxCell id="137" style="edgeStyle=none;html=1;exitX=0.25;exitY=1;exitDx=0;exitDy=0;entryX=0.5;entryY=0;entryDx=0;entryDy=0;shadow=0;labelBackgroundColor=#FFFFFF;strokeColor=#000000;strokeWidth=2;fontColor=#000000;endArrow=none;endFill=0;" parent="1" source="5" target="42" edge="1">
                    <mxGeometry relative="1" as="geometry"/>
                </mxCell>
                <mxCell id="5" value="Utilisateur" style="swimlane;fontStyle=0;childLayout=stackLayout;horizontal=1;startSize=30;horizontalStack=0;resizeParent=1;resizeParentMax=0;resizeLast=0;collapsible=1;marginBottom=0;whiteSpace=wrap;html=1;container=1;rounded=0;glass=0;shadow=0;labelBackgroundColor=none;fillColor=#cce5ff;strokeColor=#36393d;strokeWidth=2;fillStyle=solid;fontColor=#000000;" parent="1" vertex="1">
                    <mxGeometry x="309" y="-718" width="140" height="180" as="geometry"/>
                </mxCell>
                <mxCell id="6" value="- &lt;u&gt;idUtil&lt;/u&gt;" style="text;strokeColor=none;fillColor=#FFFFFF;align=left;verticalAlign=middle;spacingLeft=4;spacingRight=4;overflow=hidden;points=[[0,0.5],[1,0.5]];portConstraint=eastwest;rotatable=0;whiteSpace=wrap;html=1;labelBackgroundColor=none;fontColor=#000000;rounded=0;glass=0;shadow=0;connectable=0;fillStyle=solid;" parent="5" vertex="1">
                    <mxGeometry y="30" width="140" height="30" as="geometry"/>
                </mxCell>
                <mxCell id="7" value="- pseudo&lt;span style=&quot;white-space: pre;&quot;&gt;&#9;&lt;/span&gt;" style="text;strokeColor=none;fillColor=#FFFFFF;align=left;verticalAlign=middle;spacingLeft=4;spacingRight=4;overflow=hidden;points=[[0,0.5],[1,0.5]];portConstraint=eastwest;rotatable=0;whiteSpace=wrap;html=1;labelBackgroundColor=none;fontColor=#000000;rounded=0;glass=0;shadow=0;connectable=0;fillStyle=solid;" parent="5" vertex="1">
                    <mxGeometry y="60" width="140" height="30" as="geometry"/>
                </mxCell>
                <mxCell id="8" value="- mdp" style="text;strokeColor=none;fillColor=#FFFFFF;align=left;verticalAlign=middle;spacingLeft=4;spacingRight=4;overflow=hidden;points=[[0,0.5],[1,0.5]];portConstraint=eastwest;rotatable=0;whiteSpace=wrap;html=1;labelBackgroundColor=none;fontColor=#000000;rounded=0;glass=0;shadow=0;connectable=0;fillStyle=solid;" parent="5" vertex="1">
                    <mxGeometry y="90" width="140" height="30" as="geometry"/>
                </mxCell>
                <mxCell id="45" value="- email" style="text;strokeColor=none;fillColor=#FFFFFF;align=left;verticalAlign=middle;spacingLeft=4;spacingRight=4;overflow=hidden;points=[[0,0.5],[1,0.5]];portConstraint=eastwest;rotatable=0;whiteSpace=wrap;html=1;labelBackgroundColor=none;fontColor=#000000;rounded=0;glass=0;shadow=0;connectable=0;fillStyle=solid;" parent="5" vertex="1">
                    <mxGeometry y="120" width="140" height="30" as="geometry"/>
                </mxCell>
                <mxCell id="104" value="- role" style="text;strokeColor=none;fillColor=#FFFFFF;align=left;verticalAlign=middle;spacingLeft=4;spacingRight=4;overflow=hidden;points=[[0,0.5],[1,0.5]];portConstraint=eastwest;rotatable=0;whiteSpace=wrap;html=1;labelBackgroundColor=none;fontColor=#000000;rounded=0;glass=0;shadow=0;connectable=0;fillStyle=solid;" parent="5" vertex="1">
                    <mxGeometry y="150" width="140" height="30" as="geometry"/>
                </mxCell>
                <mxCell id="15" value="Oeuvre" style="swimlane;fontStyle=0;childLayout=stackLayout;horizontal=1;startSize=30;horizontalStack=0;resizeParent=1;resizeParentMax=0;resizeLast=0;collapsible=1;marginBottom=0;whiteSpace=wrap;html=1;container=1;rounded=0;glass=0;shadow=0;labelBackgroundColor=none;fillColor=#E6E6E6;strokeColor=#050505;fontColor=#000000;strokeWidth=2;fillStyle=solid;" parent="1" vertex="1">
                    <mxGeometry x="-119" y="-648" width="140" height="240" as="geometry"/>
                </mxCell>
                <mxCell id="16" value="- &lt;u&gt;idOeuv&lt;/u&gt;" style="text;strokeColor=none;fillColor=#FFFFFF;align=left;verticalAlign=middle;spacingLeft=4;spacingRight=4;overflow=hidden;points=[[0,0.5],[1,0.5]];portConstraint=eastwest;rotatable=0;whiteSpace=wrap;html=1;labelBackgroundColor=none;fontColor=#000000;rounded=0;glass=0;shadow=0;connectable=0;fillStyle=solid;" parent="15" vertex="1">
                    <mxGeometry y="30" width="140" height="30" as="geometry"/>
                </mxCell>
                <mxCell id="20" value="- idPers (RÃ©al)" style="text;strokeColor=none;fillColor=#FFFFFF;align=left;verticalAlign=middle;spacingLeft=4;spacingRight=4;overflow=hidden;points=[[0,0.5],[1,0.5]];portConstraint=eastwest;rotatable=0;whiteSpace=wrap;html=1;labelBackgroundColor=none;fontColor=#000000;rounded=0;glass=0;shadow=0;connectable=0;fillStyle=solid;" parent="15" vertex="1">
                    <mxGeometry y="60" width="140" height="30" as="geometry"/>
                </mxCell>
                <mxCell id="92" value="- idStud" style="text;strokeColor=none;fillColor=#FFFFFF;align=left;verticalAlign=middle;spacingLeft=4;spacingRight=4;overflow=hidden;points=[[0,0.5],[1,0.5]];portConstraint=eastwest;rotatable=0;whiteSpace=wrap;html=1;labelBackgroundColor=none;fontColor=#000000;rounded=0;glass=0;shadow=0;connectable=0;fillStyle=solid;" parent="15" vertex="1">
                    <mxGeometry y="90" width="140" height="30" as="geometry"/>
                </mxCell>
                <mxCell id="17" value="- titre&lt;span style=&quot;white-space: pre;&quot;&gt;&#9;&lt;/span&gt;" style="text;strokeColor=none;fillColor=#FFFFFF;align=left;verticalAlign=middle;spacingLeft=4;spacingRight=4;overflow=hidden;points=[[0,0.5],[1,0.5]];portConstraint=eastwest;rotatable=0;whiteSpace=wrap;html=1;labelBackgroundColor=none;fontColor=#000000;rounded=0;glass=0;shadow=0;connectable=0;fillStyle=solid;" parent="15" vertex="1">
                    <mxGeometry y="120" width="140" height="30" as="geometry"/>
                </mxCell>
                <mxCell id="19" value="- dateSortie" style="text;strokeColor=none;fillColor=#FFFFFF;align=left;verticalAlign=middle;spacingLeft=4;spacingRight=4;overflow=hidden;points=[[0,0.5],[1,0.5]];portConstraint=eastwest;rotatable=0;whiteSpace=wrap;html=1;labelBackgroundColor=none;fontColor=#000000;rounded=0;glass=0;shadow=0;connectable=0;fillStyle=solid;" parent="15" vertex="1">
                    <mxGeometry y="150" width="140" height="30" as="geometry"/>
                </mxCell>
                <mxCell id="21" value="- synopsis" style="text;strokeColor=none;fillColor=#FFFFFF;align=left;verticalAlign=middle;spacingLeft=4;spacingRight=4;overflow=hidden;points=[[0,0.5],[1,0.5]];portConstraint=eastwest;rotatable=0;whiteSpace=wrap;html=1;labelBackgroundColor=none;fontColor=#000000;rounded=0;glass=0;shadow=0;connectable=0;fillStyle=solid;" parent="15" vertex="1">
                    <mxGeometry y="180" width="140" height="30" as="geometry"/>
                </mxCell>
                <mxCell id="82" value="- noteMoyenne" style="text;strokeColor=none;fillColor=#FFFFFF;align=left;verticalAlign=middle;spacingLeft=4;spacingRight=4;overflow=hidden;points=[[0,0.5],[1,0.5]];portConstraint=eastwest;rotatable=0;whiteSpace=wrap;html=1;labelBackgroundColor=none;fontColor=#000000;rounded=0;glass=0;shadow=0;connectable=0;fillStyle=solid;" parent="15" vertex="1">
                    <mxGeometry y="210" width="140" height="30" as="geometry"/>
                </mxCell>
                <mxCell id="22" value="Evenement" style="swimlane;fontStyle=0;childLayout=stackLayout;horizontal=1;startSize=30;horizontalStack=0;resizeParent=1;resizeParentMax=0;resizeLast=0;collapsible=1;marginBottom=0;whiteSpace=wrap;html=1;container=1;rounded=0;glass=0;shadow=0;labelBackgroundColor=none;fillColor=#cce5ff;strokeColor=#36393d;strokeWidth=2;fillStyle=solid;fontColor=#000000;" parent="1" vertex="1">
                    <mxGeometry x="28" y="-971" width="140" height="270" as="geometry">
                        <mxRectangle x="328" y="-648" width="105" height="42" as="alternateBounds"/>
                    </mxGeometry>
                </mxCell>
                <mxCell id="23" value="- &lt;u&gt;idEven&lt;/u&gt;" style="text;strokeColor=none;fillColor=#FFFFFF;align=left;verticalAlign=middle;spacingLeft=4;spacingRight=4;overflow=hidden;points=[[0,0.5],[1,0.5]];portConstraint=eastwest;rotatable=0;whiteSpace=wrap;html=1;labelBackgroundColor=none;fontColor=#000000;rounded=0;glass=0;shadow=0;connectable=0;fillStyle=solid;" parent="22" vertex="1">
                    <mxGeometry y="30" width="140" height="30" as="geometry"/>
                </mxCell>
                <mxCell id="24" value="- idUtil (Orga)" style="text;strokeColor=none;fillColor=#FFFFFF;align=left;verticalAlign=middle;spacingLeft=4;spacingRight=4;overflow=hidden;points=[[0,0.5],[1,0.5]];portConstraint=eastwest;rotatable=0;whiteSpace=wrap;html=1;labelBackgroundColor=none;fontColor=#000000;rounded=0;glass=0;shadow=0;connectable=0;fillStyle=solid;" parent="22" vertex="1">
                    <mxGeometry y="60" width="140" height="30" as="geometry"/>
                </mxCell>
                <mxCell id="25" value="- nom" style="text;strokeColor=none;fillColor=#FFFFFF;align=left;verticalAlign=middle;spacingLeft=4;spacingRight=4;overflow=hidden;points=[[0,0.5],[1,0.5]];portConstraint=eastwest;rotatable=0;whiteSpace=wrap;html=1;labelBackgroundColor=none;fontColor=#000000;rounded=0;glass=0;shadow=0;connectable=0;fillStyle=solid;" parent="22" vertex="1">
                    <mxGeometry y="90" width="140" height="30" as="geometry"/>
                </mxCell>
                <mxCell id="26" value="- date" style="text;strokeColor=none;fillColor=#FFFFFF;align=left;verticalAlign=middle;spacingLeft=4;spacingRight=4;overflow=hidden;points=[[0,0.5],[1,0.5]];portConstraint=eastwest;rotatable=0;whiteSpace=wrap;html=1;labelBackgroundColor=none;fontColor=#000000;rounded=0;glass=0;shadow=0;connectable=0;fillStyle=solid;" parent="22" vertex="1">
                    <mxGeometry y="120" width="140" height="30" as="geometry"/>
                </mxCell>
                <mxCell id="28" value="- description" style="text;strokeColor=none;fillColor=#FFFFFF;align=left;verticalAlign=middle;spacingLeft=4;spacingRight=4;overflow=hidden;points=[[0,0.5],[1,0.5]];portConstraint=eastwest;rotatable=0;whiteSpace=wrap;html=1;labelBackgroundColor=none;fontColor=#000000;rounded=0;glass=0;shadow=0;connectable=0;fillStyle=solid;" parent="22" vertex="1">
                    <mxGeometry y="150" width="140" height="30" as="geometry"/>
                </mxCell>
                <mxCell id="29" value="- nbPlaces" style="text;strokeColor=none;fillColor=#FFFFFF;align=left;verticalAlign=middle;spacingLeft=4;spacingRight=4;overflow=hidden;points=[[0,0.5],[1,0.5]];portConstraint=eastwest;rotatable=0;whiteSpace=wrap;html=1;labelBackgroundColor=none;fontColor=#000000;rounded=0;glass=0;shadow=0;connectable=0;fillStyle=solid;" parent="22" vertex="1">
                    <mxGeometry y="180" width="140" height="30" as="geometry"/>
                </mxCell>
                <mxCell id="114" value="- prix" style="text;strokeColor=none;fillColor=#FFFFFF;align=left;verticalAlign=middle;spacingLeft=4;spacingRight=4;overflow=hidden;points=[[0,0.5],[1,0.5]];portConstraint=eastwest;rotatable=0;whiteSpace=wrap;html=1;labelBackgroundColor=none;fontColor=#000000;rounded=0;glass=0;shadow=0;connectable=0;fillStyle=solid;" parent="22" vertex="1">
                    <mxGeometry y="210" width="140" height="30" as="geometry"/>
                </mxCell>
                <mxCell id="136" value="- statut" style="text;strokeColor=none;fillColor=#FFFFFF;align=left;verticalAlign=middle;spacingLeft=4;spacingRight=4;overflow=hidden;points=[[0,0.5],[1,0.5]];portConstraint=eastwest;rotatable=0;whiteSpace=wrap;html=1;labelBackgroundColor=none;fontColor=#000000;rounded=0;glass=0;shadow=0;connectable=0;fillStyle=solid;" parent="22" vertex="1">
                    <mxGeometry y="240" width="140" height="30" as="geometry"/>
                </mxCell>
                <mxCell id="139" style="edgeStyle=none;html=1;exitX=1;exitY=0.5;exitDx=0;exitDy=0;shadow=0;labelBackgroundColor=#FFFFFF;strokeColor=#000000;strokeWidth=2;fontColor=#000000;endArrow=none;endFill=0;entryX=0;entryY=0.25;entryDx=0;entryDy=0;" parent="1" source="33" target="5" edge="1">
                    <mxGeometry relative="1" as="geometry">
                        <mxPoint x="315" y="-651" as="targetPoint"/>
                    </mxGeometry>
                </mxCell>
                <mxCell id="33" value="Follow&lt;br&gt;&lt;br&gt;" style="rhombus;whiteSpace=wrap;html=1;rounded=0;shadow=0;glass=0;sketch=0;container=1;labelBackgroundColor=none;fillColor=#cdeb8b;strokeColor=#36393d;strokeWidth=2;fillStyle=solid;fontColor=#000000;" parent="1" vertex="1">
                    <mxGeometry x="151" y="-718" width="120" height="90" as="geometry"/>
                </mxCell>
                <mxCell id="34" value="- idSuiveur" style="text;strokeColor=none;fillColor=none;align=left;verticalAlign=middle;spacingLeft=4;spacingRight=4;overflow=hidden;points=[[0,0.5],[1,0.5]];portConstraint=eastwest;rotatable=0;whiteSpace=wrap;html=1;labelBackgroundColor=none;fontColor=#000000;shadow=0;" parent="33" vertex="1">
                    <mxGeometry x="34.28571428571429" y="42.35294117647059" width="80" height="15.882352941176475" as="geometry"/>
                </mxCell>
                <mxCell id="35" value="- idSuivi" style="text;strokeColor=none;fillColor=none;align=left;verticalAlign=middle;spacingLeft=4;spacingRight=4;overflow=hidden;points=[[0,0.5],[1,0.5]];portConstraint=eastwest;rotatable=0;whiteSpace=wrap;html=1;labelBackgroundColor=none;fontColor=#000000;shadow=0;" parent="33" vertex="1">
                    <mxGeometry x="34.28571428571429" y="58.235294117647086" width="80" height="15.882352941176475" as="geometry"/>
                </mxCell>
                <mxCell id="102" style="edgeStyle=none;html=1;exitX=0;exitY=0.5;exitDx=0;exitDy=0;strokeWidth=2;endArrow=none;endFill=0;labelBackgroundColor=#FFFFFF;fontColor=#000000;fillColor=#eeeeee;strokeColor=#000000;shadow=0;entryX=1;entryY=0.75;entryDx=0;entryDy=0;" parent="1" source="42" target="15" edge="1">
                    <mxGeometry relative="1" as="geometry">
                        <mxPoint x="21" y="-441" as="targetPoint"/>
                    </mxGeometry>
                </mxCell>
                <mxCell id="42" value="Note&lt;br&gt;&lt;br&gt;&lt;br&gt;" style="rhombus;whiteSpace=wrap;html=1;rounded=0;shadow=0;glass=0;sketch=0;container=1;labelBackgroundColor=none;fillColor=#cdeb8b;strokeColor=#36393d;strokeWidth=2;fillStyle=solid;fontColor=#000000;" parent="1" vertex="1">
                    <mxGeometry x="278" y="-527" width="132.5" height="120" as="geometry"/>
                </mxCell>
                <mxCell id="43" value="- idOeuv" style="text;strokeColor=none;fillColor=none;align=left;verticalAlign=middle;spacingLeft=4;spacingRight=4;overflow=hidden;points=[[0,0.5],[1,0.5]];portConstraint=eastwest;rotatable=0;whiteSpace=wrap;html=1;labelBackgroundColor=none;fontColor=#000000;shadow=0;" parent="42" vertex="1">
                    <mxGeometry x="46.73918942577031" y="55.450449826989626" width="76.20915032679738" height="16.193771626297575" as="geometry"/>
                </mxCell>
                <mxCell id="44" value="- idUtil" style="text;strokeColor=none;fillColor=none;align=left;verticalAlign=middle;spacingLeft=4;spacingRight=4;overflow=hidden;points=[[0,0.5],[1,0.5]];portConstraint=eastwest;rotatable=0;whiteSpace=wrap;html=1;labelBackgroundColor=none;fontColor=#000000;shadow=0;" parent="42" vertex="1">
                    <mxGeometry x="46.73918942577031" y="71.6453979238754" width="76.20915032679738" height="16.193771626297575" as="geometry"/>
                </mxCell>
                <mxCell id="101" value="- note" style="text;strokeColor=none;fillColor=none;align=left;verticalAlign=middle;spacingLeft=4;spacingRight=4;overflow=hidden;points=[[0,0.5],[1,0.5]];portConstraint=eastwest;rotatable=0;whiteSpace=wrap;html=1;labelBackgroundColor=none;fontColor=#000000;shadow=0;" parent="42" vertex="1">
                    <mxGeometry x="47.20293942577029" y="87.83539792387545" width="76.20915032679738" height="16.193771626297575" as="geometry"/>
                </mxCell>
                <mxCell id="99" style="edgeStyle=none;html=1;exitX=1;exitY=0.5;exitDx=0;exitDy=0;entryX=0;entryY=0.25;entryDx=0;entryDy=0;strokeWidth=2;endArrow=none;endFill=0;labelBackgroundColor=#FFFFFF;fontColor=#000000;fillColor=#eeeeee;strokeColor=#000000;shadow=0;" parent="1" source="39" target="15" edge="1">
                    <mxGeometry relative="1" as="geometry"/>
                </mxCell>
                <mxCell id="100" style="edgeStyle=none;html=1;exitX=0;exitY=0.5;exitDx=0;exitDy=0;entryX=1;entryY=0.5;entryDx=0;entryDy=0;strokeWidth=2;endArrow=none;endFill=0;labelBackgroundColor=#FFFFFF;fontColor=#000000;fillColor=#eeeeee;strokeColor=#000000;shadow=0;" parent="1" source="39" target="96" edge="1">
                    <mxGeometry relative="1" as="geometry"/>
                </mxCell>
                <mxCell id="39" value="Casting&lt;br&gt;&lt;br&gt;" style="rhombus;whiteSpace=wrap;html=1;rounded=0;shadow=0;glass=0;sketch=0;container=1;labelBackgroundColor=none;fillColor=#cdeb8b;strokeColor=#36393d;strokeWidth=2;fillStyle=solid;fontColor=#000000;" parent="1" vertex="1">
                    <mxGeometry x="-323" y="-633" width="110" height="90" as="geometry"/>
                </mxCell>
                <mxCell id="40" value="- idOeuv" style="text;strokeColor=none;fillColor=none;align=left;verticalAlign=middle;spacingLeft=4;spacingRight=4;overflow=hidden;points=[[0,0.5],[1,0.5]];portConstraint=eastwest;rotatable=0;whiteSpace=wrap;html=1;labelBackgroundColor=none;fontColor=#000000;shadow=0;" parent="39" vertex="1">
                    <mxGeometry x="31.428571428571423" y="42.352941176470594" width="73.33333333333334" height="15.882352941176478" as="geometry"/>
                </mxCell>
                <mxCell id="41" value="- idPers" style="text;strokeColor=none;fillColor=none;align=left;verticalAlign=middle;spacingLeft=4;spacingRight=4;overflow=hidden;points=[[0,0.5],[1,0.5]];portConstraint=eastwest;rotatable=0;whiteSpace=wrap;html=1;labelBackgroundColor=none;fontColor=#000000;shadow=0;" parent="39" vertex="1">
                    <mxGeometry x="31.428571428571423" y="58.23529411764706" width="73.33333333333334" height="15.882352941176478" as="geometry"/>
                </mxCell>
                <mxCell id="135" style="edgeStyle=none;html=1;exitX=1;exitY=0.25;exitDx=0;exitDy=0;shadow=0;labelBackgroundColor=#FFFFFF;strokeColor=#000000;strokeWidth=2;fontColor=#000000;endArrow=open;endFill=0;entryX=0;entryY=0.75;entryDx=0;entryDy=0;" parent="1" source="56" target="15" edge="1">
                    <mxGeometry relative="1" as="geometry">
                        <mxPoint x="-126" y="-462" as="targetPoint"/>
                    </mxGeometry>
                </mxCell>
                <mxCell id="56" value="SÃ©rie" style="swimlane;fontStyle=0;childLayout=stackLayout;horizontal=1;startSize=30;horizontalStack=0;resizeParent=1;resizeParentMax=0;resizeLast=0;collapsible=1;marginBottom=0;whiteSpace=wrap;html=1;container=1;rounded=0;glass=0;shadow=0;labelBackgroundColor=none;fillColor=#cce5ff;strokeColor=#36393d;strokeWidth=2;fillStyle=solid;fontColor=#000000;" parent="1" vertex="1">
                    <mxGeometry x="-277" y="-498" width="80" height="120" as="geometry"/>
                </mxCell>
                <mxCell id="72" value="-&amp;nbsp;&lt;u&gt;idOeuv&lt;/u&gt;" style="text;strokeColor=none;fillColor=#FFFFFF;align=left;verticalAlign=middle;spacingLeft=4;spacingRight=4;overflow=hidden;points=[[0,0.5],[1,0.5]];portConstraint=eastwest;rotatable=0;whiteSpace=wrap;html=1;labelBackgroundColor=none;fontColor=#000000;rounded=0;glass=0;shadow=0;connectable=0;fillStyle=solid;" parent="56" vertex="1">
                    <mxGeometry y="30" width="80" height="30" as="geometry"/>
                </mxCell>
                <mxCell id="59" value="- nbEpisode" style="text;strokeColor=none;fillColor=#FFFFFF;align=left;verticalAlign=middle;spacingLeft=4;spacingRight=4;overflow=hidden;points=[[0,0.5],[1,0.5]];portConstraint=eastwest;rotatable=0;whiteSpace=wrap;html=1;labelBackgroundColor=none;fontColor=#000000;rounded=0;glass=0;shadow=0;connectable=0;fillStyle=solid;" parent="56" vertex="1">
                    <mxGeometry y="60" width="80" height="30" as="geometry"/>
                </mxCell>
                <mxCell id="60" value="- nbSaison" style="text;strokeColor=none;fillColor=#FFFFFF;align=left;verticalAlign=middle;spacingLeft=4;spacingRight=4;overflow=hidden;points=[[0,0.5],[1,0.5]];portConstraint=eastwest;rotatable=0;whiteSpace=wrap;html=1;labelBackgroundColor=none;fontColor=#000000;rounded=0;glass=0;shadow=0;connectable=0;fillStyle=solid;" parent="56" vertex="1">
                    <mxGeometry y="90" width="80" height="30" as="geometry"/>
                </mxCell>
                <mxCell id="64" style="edgeStyle=none;html=1;exitX=0.5;exitY=0;exitDx=0;exitDy=0;endArrow=diamondThin;endFill=1;strokeWidth=2;labelBackgroundColor=#FFFFFF;fontColor=#000000;fillColor=#eeeeee;strokeColor=#000000;shadow=0;entryX=0.5;entryY=1;entryDx=0;entryDy=0;" parent="1" source="61" target="77" edge="1">
                    <mxGeometry relative="1" as="geometry">
                        <mxPoint x="-126" y="-168" as="targetPoint"/>
                    </mxGeometry>
                </mxCell>
                <mxCell id="61" value="Episode" style="swimlane;fontStyle=0;childLayout=stackLayout;horizontal=1;startSize=30;horizontalStack=0;resizeParent=1;resizeParentMax=0;resizeLast=0;collapsible=1;marginBottom=0;whiteSpace=wrap;html=1;container=1;rounded=0;glass=0;shadow=0;labelBackgroundColor=none;fillColor=#cce5ff;strokeColor=#36393d;strokeWidth=2;fillStyle=solid;fontColor=#000000;" parent="1" vertex="1">
                    <mxGeometry x="-418" y="-338" width="90" height="180" as="geometry"/>
                </mxCell>
                <mxCell id="73" value="-&amp;nbsp;&lt;u&gt;idEpi&lt;/u&gt;" style="text;strokeColor=none;fillColor=#FFFFFF;align=left;verticalAlign=middle;spacingLeft=4;spacingRight=4;overflow=hidden;points=[[0,0.5],[1,0.5]];portConstraint=eastwest;rotatable=0;whiteSpace=wrap;html=1;labelBackgroundColor=none;fontColor=#000000;rounded=0;glass=0;shadow=0;connectable=0;fillStyle=solid;" parent="61" vertex="1">
                    <mxGeometry y="30" width="90" height="30" as="geometry"/>
                </mxCell>
                <mxCell id="75" value="- idOeuv" style="text;strokeColor=none;fillColor=#FFFFFF;align=left;verticalAlign=middle;spacingLeft=4;spacingRight=4;overflow=hidden;points=[[0,0.5],[1,0.5]];portConstraint=eastwest;rotatable=0;whiteSpace=wrap;html=1;labelBackgroundColor=none;fontColor=#000000;rounded=0;glass=0;shadow=0;connectable=0;fillStyle=solid;" parent="61" vertex="1">
                    <mxGeometry y="60" width="90" height="30" as="geometry"/>
                </mxCell>
                <mxCell id="62" value="- numSaison" style="text;strokeColor=none;fillColor=#FFFFFF;align=left;verticalAlign=middle;spacingLeft=4;spacingRight=4;overflow=hidden;points=[[0,0.5],[1,0.5]];portConstraint=eastwest;rotatable=0;whiteSpace=wrap;html=1;labelBackgroundColor=none;fontColor=#000000;rounded=0;glass=0;shadow=0;connectable=0;fillStyle=solid;" parent="61" vertex="1">
                    <mxGeometry y="90" width="90" height="30" as="geometry"/>
                </mxCell>
                <mxCell id="63" value="- numEpisode" style="text;strokeColor=none;fillColor=#FFFFFF;align=left;verticalAlign=middle;spacingLeft=4;spacingRight=4;overflow=hidden;points=[[0,0.5],[1,0.5]];portConstraint=eastwest;rotatable=0;whiteSpace=wrap;html=1;labelBackgroundColor=none;fontColor=#000000;rounded=0;glass=0;shadow=0;connectable=0;fillStyle=solid;" parent="61" vertex="1">
                    <mxGeometry y="120" width="90" height="30" as="geometry"/>
                </mxCell>
                <mxCell id="65" value="- duree" style="text;strokeColor=none;fillColor=#FFFFFF;align=left;verticalAlign=middle;spacingLeft=4;spacingRight=4;overflow=hidden;points=[[0,0.5],[1,0.5]];portConstraint=eastwest;rotatable=0;whiteSpace=wrap;html=1;labelBackgroundColor=none;fontColor=#000000;rounded=0;glass=0;shadow=0;connectable=0;fillStyle=solid;" parent="61" vertex="1">
                    <mxGeometry y="150" width="90" height="30" as="geometry"/>
                </mxCell>
                <mxCell id="74" style="edgeStyle=none;html=1;exitX=1;exitY=0.5;exitDx=0;exitDy=0;endArrow=open;endFill=0;strokeWidth=2;entryX=0;entryY=0.75;entryDx=0;entryDy=0;labelBackgroundColor=#FFFFFF;fontColor=#000000;fillColor=#eeeeee;strokeColor=#000000;shadow=0;" parent="1" source="66" target="15" edge="1">
                    <mxGeometry relative="1" as="geometry">
                        <Array as="points">
                            <mxPoint x="-168" y="-294"/>
                            <mxPoint x="-168" y="-468"/>
                        </Array>
                    </mxGeometry>
                </mxCell>
                <mxCell id="66" value="Film" style="swimlane;fontStyle=0;childLayout=stackLayout;horizontal=1;startSize=30;horizontalStack=0;resizeParent=1;resizeParentMax=0;resizeLast=0;collapsible=1;marginBottom=0;whiteSpace=wrap;html=1;container=1;rounded=0;glass=0;shadow=0;labelBackgroundColor=none;fillColor=#cce5ff;strokeColor=#36393d;strokeWidth=2;fillStyle=solid;fontColor=#000000;" parent="1" vertex="1">
                    <mxGeometry x="-277" y="-338" width="80" height="90" as="geometry"/>
                </mxCell>
                <mxCell id="71" value="- &lt;u&gt;idOeuv&lt;/u&gt;" style="text;strokeColor=none;fillColor=#FFFFFF;align=left;verticalAlign=middle;spacingLeft=4;spacingRight=4;overflow=hidden;points=[[0,0.5],[1,0.5]];portConstraint=eastwest;rotatable=0;whiteSpace=wrap;html=1;labelBackgroundColor=none;fontColor=#000000;rounded=0;glass=0;shadow=0;connectable=0;fillStyle=solid;" parent="66" vertex="1">
                    <mxGeometry y="30" width="80" height="30" as="geometry"/>
                </mxCell>
                <mxCell id="68" value="- duree" style="text;strokeColor=none;fillColor=#FFFFFF;align=left;verticalAlign=middle;spacingLeft=4;spacingRight=4;overflow=hidden;points=[[0,0.5],[1,0.5]];portConstraint=eastwest;rotatable=0;whiteSpace=wrap;html=1;labelBackgroundColor=none;fontColor=#000000;rounded=0;glass=0;shadow=0;connectable=0;fillStyle=solid;" parent="66" vertex="1">
                    <mxGeometry y="60" width="80" height="30" as="geometry"/>
                </mxCell>
                <mxCell id="81" style="edgeStyle=none;html=1;exitX=1;exitY=0.5;exitDx=0;exitDy=0;entryX=0;entryY=0.5;entryDx=0;entryDy=0;strokeWidth=2;endArrow=diamondThin;endFill=1;labelBackgroundColor=#FFFFFF;fontColor=#000000;fillColor=#eeeeee;strokeColor=#000000;shadow=0;" parent="1" source="77" target="56" edge="1">
                    <mxGeometry relative="1" as="geometry"/>
                </mxCell>
                <mxCell id="77" value="Saison" style="swimlane;fontStyle=0;childLayout=stackLayout;horizontal=1;startSize=30;horizontalStack=0;resizeParent=1;resizeParentMax=0;resizeLast=0;collapsible=1;marginBottom=0;whiteSpace=wrap;html=1;container=1;rounded=0;glass=0;shadow=0;labelBackgroundColor=none;fillColor=#cce5ff;strokeColor=#36393d;strokeWidth=2;fillStyle=solid;fontColor=#000000;" parent="1" vertex="1">
                    <mxGeometry x="-413" y="-498" width="80" height="120" as="geometry"/>
                </mxCell>
                <mxCell id="78" value="- &lt;u&gt;idOeuv&lt;/u&gt;" style="text;strokeColor=none;fillColor=#FFFFFF;align=left;verticalAlign=middle;spacingLeft=4;spacingRight=4;overflow=hidden;points=[[0,0.5],[1,0.5]];portConstraint=eastwest;rotatable=0;whiteSpace=wrap;html=1;labelBackgroundColor=none;fontColor=#000000;rounded=0;glass=0;shadow=0;connectable=0;fillStyle=solid;" parent="77" vertex="1">
                    <mxGeometry y="30" width="80" height="30" as="geometry"/>
                </mxCell>
                <mxCell id="79" value="- numSaison" style="text;strokeColor=none;fillColor=#FFFFFF;align=left;verticalAlign=middle;spacingLeft=4;spacingRight=4;overflow=hidden;points=[[0,0.5],[1,0.5]];portConstraint=eastwest;rotatable=0;whiteSpace=wrap;html=1;labelBackgroundColor=none;fontColor=#000000;rounded=0;glass=0;shadow=0;connectable=0;fillStyle=solid;" parent="77" vertex="1">
                    <mxGeometry y="60" width="80" height="30" as="geometry"/>
                </mxCell>
                <mxCell id="80" value="- nbEpisode" style="text;strokeColor=none;fillColor=#FFFFFF;align=left;verticalAlign=middle;spacingLeft=4;spacingRight=4;overflow=hidden;points=[[0,0.5],[1,0.5]];portConstraint=eastwest;rotatable=0;whiteSpace=wrap;html=1;labelBackgroundColor=none;fontColor=#000000;rounded=0;glass=0;shadow=0;connectable=0;fillStyle=solid;" parent="77" vertex="1">
                    <mxGeometry y="90" width="80" height="30" as="geometry"/>
                </mxCell>
                <mxCell id="128" style="edgeStyle=none;html=1;exitX=1;exitY=0.75;exitDx=0;exitDy=0;entryX=0;entryY=0.25;entryDx=0;entryDy=0;shadow=0;labelBackgroundColor=#FFFFFF;strokeColor=#000000;strokeWidth=2;fontColor=#000000;endArrow=diamondThin;endFill=1;" parent="1" source="83" target="22" edge="1">
                    <mxGeometry relative="1" as="geometry"/>
                </mxCell>
                <mxCell id="140" style="edgeStyle=none;html=1;exitX=0.5;exitY=1;exitDx=0;exitDy=0;entryX=0.25;entryY=0;entryDx=0;entryDy=0;shadow=0;labelBackgroundColor=#FFFFFF;strokeColor=#000000;strokeWidth=2;fontColor=#000000;endArrow=diamondThin;endFill=1;" parent="1" source="83" target="15" edge="1">
                    <mxGeometry relative="1" as="geometry"/>
                </mxCell>
                <mxCell id="161" style="edgeStyle=none;html=1;exitX=0.5;exitY=0;exitDx=0;exitDy=0;entryX=0;entryY=0.5;entryDx=0;entryDy=0;shadow=0;labelBackgroundColor=#FFFFFF;strokeColor=#000000;strokeWidth=2;fontColor=#000000;endArrow=diamondThin;endFill=1;" parent="1" source="83" target="105" edge="1">
                    <mxGeometry relative="1" as="geometry">
                        <Array as="points">
                            <mxPoint x="-84" y="-1029"/>
                        </Array>
                    </mxGeometry>
                </mxCell>
                <mxCell id="83" value="Genre" style="swimlane;fontStyle=0;childLayout=stackLayout;horizontal=1;startSize=30;horizontalStack=0;resizeParent=1;resizeParentMax=0;resizeLast=0;collapsible=1;marginBottom=0;whiteSpace=wrap;html=1;container=1;rounded=0;glass=0;shadow=0;labelBackgroundColor=none;fillColor=#cce5ff;strokeColor=#36393d;strokeWidth=2;fillStyle=solid;fontColor=#000000;" parent="1" vertex="1">
                    <mxGeometry x="-124" y="-971" width="80" height="90" as="geometry"/>
                </mxCell>
                <mxCell id="84" value="- idGen" style="text;strokeColor=none;fillColor=#FFFFFF;align=left;verticalAlign=middle;spacingLeft=4;spacingRight=4;overflow=hidden;points=[[0,0.5],[1,0.5]];portConstraint=eastwest;rotatable=0;whiteSpace=wrap;html=1;labelBackgroundColor=none;fontColor=#000000;rounded=0;glass=0;shadow=0;connectable=0;fillStyle=solid;" parent="83" vertex="1">
                    <mxGeometry y="30" width="80" height="30" as="geometry"/>
                </mxCell>
                <mxCell id="85" value="- nom" style="text;strokeColor=none;fillColor=#FFFFFF;align=left;verticalAlign=middle;spacingLeft=4;spacingRight=4;overflow=hidden;points=[[0,0.5],[1,0.5]];portConstraint=eastwest;rotatable=0;whiteSpace=wrap;html=1;labelBackgroundColor=none;fontColor=#000000;rounded=0;glass=0;shadow=0;connectable=0;fillStyle=solid;" parent="83" vertex="1">
                    <mxGeometry y="60" width="80" height="30" as="geometry"/>
                </mxCell>
                <mxCell id="142" style="edgeStyle=none;html=1;exitX=0.5;exitY=1;exitDx=0;exitDy=0;entryX=0;entryY=0.75;entryDx=0;entryDy=0;shadow=0;labelBackgroundColor=#FFFFFF;strokeColor=#000000;strokeWidth=2;fontColor=#000000;endArrow=none;endFill=0;" parent="1" source="86" target="83" edge="1">
                    <mxGeometry relative="1" as="geometry">
                        <Array as="points">
                            <mxPoint x="-217" y="-903"/>
                        </Array>
                    </mxGeometry>
                </mxCell>
                <mxCell id="86" value="Sous_Genre&lt;br&gt;&lt;br&gt;" style="rhombus;whiteSpace=wrap;html=1;rounded=0;shadow=0;glass=0;sketch=0;container=1;labelBackgroundColor=none;fillColor=#cdeb8b;strokeColor=#36393d;strokeWidth=2;fillStyle=solid;fontColor=#000000;" parent="1" vertex="1">
                    <mxGeometry x="-277" y="-1021" width="120" height="100" as="geometry"/>
                </mxCell>
                <mxCell id="87" value="- idGPar" style="text;strokeColor=none;fillColor=none;align=left;verticalAlign=middle;spacingLeft=4;spacingRight=4;overflow=hidden;points=[[0,0.5],[1,0.5]];portConstraint=eastwest;rotatable=0;whiteSpace=wrap;html=1;labelBackgroundColor=none;fontColor=#000000;shadow=0;" parent="86" vertex="1">
                    <mxGeometry x="34.28571428571428" y="47.058823529411775" width="80" height="17.64705882352942" as="geometry"/>
                </mxCell>
                <mxCell id="88" value="- idGEnf" style="text;strokeColor=none;fillColor=none;align=left;verticalAlign=middle;spacingLeft=4;spacingRight=4;overflow=hidden;points=[[0,0.5],[1,0.5]];portConstraint=eastwest;rotatable=0;whiteSpace=wrap;html=1;labelBackgroundColor=none;fontColor=#000000;shadow=0;" parent="86" vertex="1">
                    <mxGeometry x="34.28571428571428" y="64.70588235294117" width="80" height="17.64705882352942" as="geometry"/>
                </mxCell>
                <mxCell id="93" value="Personne" style="swimlane;fontStyle=0;childLayout=stackLayout;horizontal=1;startSize=30;horizontalStack=0;resizeParent=1;resizeParentMax=0;resizeLast=0;collapsible=1;marginBottom=0;whiteSpace=wrap;html=1;container=1;rounded=0;glass=0;shadow=0;fillColor=#cce5ff;strokeColor=#36393d;labelBackgroundColor=none;fillStyle=solid;swimlaneFillColor=none;strokeWidth=2;fontColor=#000000;" parent="1" vertex="1">
                    <mxGeometry x="-567" y="-693" width="140" height="210" as="geometry"/>
                </mxCell>
                <mxCell id="94" value="- &lt;u&gt;idPers&lt;/u&gt;" style="text;strokeColor=none;fillColor=#FFFFFF;align=left;verticalAlign=middle;spacingLeft=4;spacingRight=4;overflow=hidden;points=[[0,0.5],[1,0.5]];portConstraint=eastwest;rotatable=0;whiteSpace=wrap;html=1;labelBackgroundColor=none;fontColor=#000000;rounded=0;glass=0;shadow=0;connectable=0;fillStyle=solid;" parent="93" vertex="1">
                    <mxGeometry y="30" width="140" height="30" as="geometry"/>
                </mxCell>
                <mxCell id="95" value="- prenom&lt;span style=&quot;white-space: pre;&quot;&gt;&#9;&lt;/span&gt;" style="text;strokeColor=none;fillColor=#FFFFFF;align=left;verticalAlign=middle;spacingLeft=4;spacingRight=4;overflow=hidden;points=[[0,0.5],[1,0.5]];portConstraint=eastwest;rotatable=0;whiteSpace=wrap;html=1;labelBackgroundColor=none;fontColor=#000000;rounded=0;glass=0;shadow=0;connectable=0;fillStyle=solid;" parent="93" vertex="1">
                    <mxGeometry y="60" width="140" height="30" as="geometry"/>
                </mxCell>
                <mxCell id="96" value="- nom" style="text;strokeColor=none;fillColor=#FFFFFF;align=left;verticalAlign=middle;spacingLeft=4;spacingRight=4;overflow=hidden;points=[[0,0.5],[1,0.5]];portConstraint=eastwest;rotatable=0;whiteSpace=wrap;html=1;labelBackgroundColor=none;fontColor=#000000;rounded=0;glass=0;shadow=0;connectable=0;fillStyle=solid;" parent="93" vertex="1">
                    <mxGeometry y="90" width="140" height="30" as="geometry"/>
                </mxCell>
                <mxCell id="97" value="- metier" style="text;strokeColor=none;fillColor=#FFFFFF;align=left;verticalAlign=middle;spacingLeft=4;spacingRight=4;overflow=hidden;points=[[0,0.5],[1,0.5]];portConstraint=eastwest;rotatable=0;whiteSpace=wrap;html=1;labelBackgroundColor=none;fontColor=#000000;rounded=0;glass=0;shadow=0;connectable=0;fillStyle=solid;" parent="93" vertex="1">
                    <mxGeometry y="120" width="140" height="30" as="geometry"/>
                </mxCell>
                <mxCell id="98" value="- dateNaissance" style="text;strokeColor=none;fillColor=#FFFFFF;align=left;verticalAlign=middle;spacingLeft=4;spacingRight=4;overflow=hidden;points=[[0,0.5],[1,0.5]];portConstraint=eastwest;rotatable=0;whiteSpace=wrap;html=1;labelBackgroundColor=none;fontColor=#000000;rounded=0;glass=0;shadow=0;connectable=0;fillStyle=solid;" parent="93" vertex="1">
                    <mxGeometry y="150" width="140" height="30" as="geometry"/>
                </mxCell>
                <mxCell id="206" value="- nbOscar" style="text;strokeColor=none;fillColor=#FFFFFF;align=left;verticalAlign=middle;spacingLeft=4;spacingRight=4;overflow=hidden;points=[[0,0.5],[1,0.5]];portConstraint=eastwest;rotatable=0;whiteSpace=wrap;html=1;labelBackgroundColor=none;fontColor=#000000;rounded=0;glass=0;shadow=0;connectable=0;fillStyle=solid;" parent="93" vertex="1">
                    <mxGeometry y="180" width="140" height="30" as="geometry"/>
                </mxCell>
                <mxCell id="157" style="edgeStyle=none;html=1;exitX=1;exitY=0.75;exitDx=0;exitDy=0;entryX=0;entryY=0.5;entryDx=0;entryDy=0;shadow=0;labelBackgroundColor=#FFFFFF;strokeColor=#000000;strokeWidth=2;fontColor=#000000;endArrow=none;endFill=0;" parent="1" source="105" target="151" edge="1">
                    <mxGeometry relative="1" as="geometry"/>
                </mxCell>
                <mxCell id="165" value="0-n" style="edgeLabel;html=1;align=center;verticalAlign=middle;resizable=0;points=[];fontColor=#000000;labelBackgroundColor=none;" parent="157" vertex="1" connectable="0">
                    <mxGeometry x="-0.841" y="1" relative="1" as="geometry">
                        <mxPoint x="-4" y="-10" as="offset"/>
                    </mxGeometry>
                </mxCell>
                <mxCell id="105" value="Publication" style="swimlane;fontStyle=0;childLayout=stackLayout;horizontal=1;startSize=30;horizontalStack=0;resizeParent=1;resizeParentMax=0;resizeLast=0;collapsible=1;marginBottom=0;whiteSpace=wrap;html=1;container=1;rounded=0;glass=0;shadow=0;labelBackgroundColor=none;fillColor=#cce5ff;strokeColor=#36393d;strokeWidth=2;fillStyle=solid;fontColor=#000000;" parent="1" vertex="1">
                    <mxGeometry x="205.75" y="-1131" width="140" height="210" as="geometry"/>
                </mxCell>
                <mxCell id="106" value="- &lt;u&gt;idPub&lt;/u&gt;" style="text;strokeColor=none;fillColor=#FFFFFF;align=left;verticalAlign=middle;spacingLeft=4;spacingRight=4;overflow=hidden;points=[[0,0.5],[1,0.5]];portConstraint=eastwest;rotatable=0;whiteSpace=wrap;html=1;labelBackgroundColor=none;fontColor=#000000;rounded=0;glass=0;shadow=0;connectable=0;fillStyle=solid;" parent="105" vertex="1">
                    <mxGeometry y="30" width="140" height="30" as="geometry"/>
                </mxCell>
                <mxCell id="107" value="- idUtil (Auteur)" style="text;strokeColor=none;fillColor=#FFFFFF;align=left;verticalAlign=middle;spacingLeft=4;spacingRight=4;overflow=hidden;points=[[0,0.5],[1,0.5]];portConstraint=eastwest;rotatable=0;whiteSpace=wrap;html=1;labelBackgroundColor=none;fontColor=#000000;rounded=0;glass=0;shadow=0;connectable=0;fillStyle=solid;" parent="105" vertex="1">
                    <mxGeometry y="60" width="140" height="30" as="geometry"/>
                </mxCell>
                <mxCell id="108" value="- titre" style="text;strokeColor=none;fillColor=#FFFFFF;align=left;verticalAlign=middle;spacingLeft=4;spacingRight=4;overflow=hidden;points=[[0,0.5],[1,0.5]];portConstraint=eastwest;rotatable=0;whiteSpace=wrap;html=1;labelBackgroundColor=none;fontColor=#000000;rounded=0;glass=0;shadow=0;connectable=0;fillStyle=solid;" parent="105" vertex="1">
                    <mxGeometry y="90" width="140" height="30" as="geometry"/>
                </mxCell>
                <mxCell id="109" value="- datePubli" style="text;strokeColor=none;fillColor=#FFFFFF;align=left;verticalAlign=middle;spacingLeft=4;spacingRight=4;overflow=hidden;points=[[0,0.5],[1,0.5]];portConstraint=eastwest;rotatable=0;whiteSpace=wrap;html=1;labelBackgroundColor=none;fontColor=#000000;rounded=0;glass=0;shadow=0;connectable=0;fillStyle=solid;" parent="105" vertex="1">
                    <mxGeometry y="120" width="140" height="30" as="geometry"/>
                </mxCell>
                <mxCell id="111" value="- contenu" style="text;strokeColor=none;fillColor=#FFFFFF;align=left;verticalAlign=middle;spacingLeft=4;spacingRight=4;overflow=hidden;points=[[0,0.5],[1,0.5]];portConstraint=eastwest;rotatable=0;whiteSpace=wrap;html=1;labelBackgroundColor=none;fontColor=#000000;rounded=0;glass=0;shadow=0;connectable=0;fillStyle=solid;" parent="105" vertex="1">
                    <mxGeometry y="150" width="140" height="30" as="geometry"/>
                </mxCell>
                <mxCell id="112" value="- pieceJointe" style="text;strokeColor=none;fillColor=#FFFFFF;align=left;verticalAlign=middle;spacingLeft=4;spacingRight=4;overflow=hidden;points=[[0,0.5],[1,0.5]];portConstraint=eastwest;rotatable=0;whiteSpace=wrap;html=1;labelBackgroundColor=none;fontColor=#000000;rounded=0;glass=0;shadow=0;connectable=0;fillStyle=solid;" parent="105" vertex="1">
                    <mxGeometry y="180" width="140" height="30" as="geometry"/>
                </mxCell>
                <mxCell id="121" style="edgeStyle=none;html=1;exitX=0;exitY=0.5;exitDx=0;exitDy=0;entryX=1;entryY=0.5;entryDx=0;entryDy=0;strokeWidth=2;endArrow=none;endFill=0;labelBackgroundColor=#FFFFFF;fontColor=#000000;fillColor=#eeeeee;strokeColor=#000000;shadow=0;" parent="1" source="118" target="22" edge="1">
                    <mxGeometry relative="1" as="geometry">
                        <Array as="points"/>
                    </mxGeometry>
                </mxCell>
                <mxCell id="122" style="edgeStyle=none;html=1;entryX=0.5;entryY=0;entryDx=0;entryDy=0;strokeWidth=2;endArrow=none;endFill=0;labelBackgroundColor=#FFFFFF;fontColor=#000000;fillColor=#eeeeee;strokeColor=#000000;shadow=0;exitX=0.5;exitY=1;exitDx=0;exitDy=0;" parent="1" source="118" target="5" edge="1">
                    <mxGeometry relative="1" as="geometry">
                        <mxPoint x="273" y="-714" as="sourcePoint"/>
                        <Array as="points"/>
                    </mxGeometry>
                </mxCell>
                <mxCell id="118" value="Inscription&lt;br&gt;&lt;br&gt;" style="rhombus;whiteSpace=wrap;html=1;rounded=0;shadow=0;glass=0;sketch=0;container=1;labelBackgroundColor=none;fillColor=#cdeb8b;strokeColor=#36393d;strokeWidth=2;fillStyle=solid;fontColor=#000000;" parent="1" vertex="1">
                    <mxGeometry x="319" y="-886" width="120" height="100" as="geometry"/>
                </mxCell>
                <mxCell id="119" value="- idUtil" style="text;strokeColor=none;fillColor=none;align=left;verticalAlign=middle;spacingLeft=4;spacingRight=4;overflow=hidden;points=[[0,0.5],[1,0.5]];portConstraint=eastwest;rotatable=0;whiteSpace=wrap;html=1;labelBackgroundColor=none;fontColor=#000000;shadow=0;" parent="118" vertex="1">
                    <mxGeometry x="34.28571428571428" y="48.058823529411775" width="80" height="17.64705882352942" as="geometry"/>
                </mxCell>
                <mxCell id="120" value="- idEven" style="text;strokeColor=none;fillColor=none;align=left;verticalAlign=middle;spacingLeft=4;spacingRight=4;overflow=hidden;points=[[0,0.5],[1,0.5]];portConstraint=eastwest;rotatable=0;whiteSpace=wrap;html=1;labelBackgroundColor=none;fontColor=#000000;shadow=0;" parent="118" vertex="1">
                    <mxGeometry x="34.28571428571428" y="64.70588235294117" width="80" height="17.64705882352942" as="geometry"/>
                </mxCell>
                <mxCell id="126" style="edgeStyle=none;html=1;exitX=0;exitY=0.5;exitDx=0;exitDy=0;labelBackgroundColor=#FFFFFF;strokeColor=#000000;strokeWidth=2;fontColor=#000000;endArrow=none;endFill=0;shadow=0;" parent="1" edge="1">
                    <mxGeometry relative="1" as="geometry">
                        <mxPoint x="41" y="-588" as="sourcePoint"/>
                        <mxPoint x="21" y="-588" as="targetPoint"/>
                    </mxGeometry>
                </mxCell>
                <mxCell id="127" style="edgeStyle=none;html=1;exitX=0.5;exitY=0;exitDx=0;exitDy=0;labelBackgroundColor=#FFFFFF;strokeColor=#000000;strokeWidth=2;fontColor=#000000;endArrow=none;endFill=0;shadow=0;entryX=0.5;entryY=1;entryDx=0;entryDy=0;" parent="1" source="123" target="22" edge="1">
                    <mxGeometry relative="1" as="geometry">
                        <mxPoint x="42" y="-693" as="targetPoint"/>
                    </mxGeometry>
                </mxCell>
                <mxCell id="123" value="OeuvreEvent&lt;br&gt;&lt;br&gt;" style="rhombus;whiteSpace=wrap;html=1;rounded=0;shadow=0;glass=0;sketch=0;container=1;labelBackgroundColor=none;fillColor=#cdeb8b;strokeColor=#36393d;strokeWidth=2;fillStyle=solid;fontColor=#000000;" parent="1" vertex="1">
                    <mxGeometry x="38" y="-638" width="120" height="100" as="geometry"/>
                </mxCell>
                <mxCell id="124" value="- idOeuv" style="text;strokeColor=none;fillColor=none;align=left;verticalAlign=middle;spacingLeft=4;spacingRight=4;overflow=hidden;points=[[0,0.5],[1,0.5]];portConstraint=eastwest;rotatable=0;whiteSpace=wrap;html=1;labelBackgroundColor=none;fontColor=#000000;shadow=0;" parent="123" vertex="1">
                    <mxGeometry x="34.28571428571428" y="47.058823529411775" width="80" height="17.64705882352942" as="geometry"/>
                </mxCell>
                <mxCell id="125" value="- idEven" style="text;strokeColor=none;fillColor=none;align=left;verticalAlign=middle;spacingLeft=4;spacingRight=4;overflow=hidden;points=[[0,0.5],[1,0.5]];portConstraint=eastwest;rotatable=0;whiteSpace=wrap;html=1;labelBackgroundColor=none;fontColor=#000000;shadow=0;" parent="123" vertex="1">
                    <mxGeometry x="34.28571428571428" y="64.70588235294117" width="80" height="17.64705882352942" as="geometry"/>
                </mxCell>
                <mxCell id="134" style="edgeStyle=none;html=1;exitX=0.5;exitY=1;exitDx=0;exitDy=0;entryX=1;entryY=0.5;entryDx=0;entryDy=0;shadow=0;labelBackgroundColor=#FFFFFF;strokeColor=#000000;strokeWidth=2;fontColor=#000000;endArrow=none;endFill=0;" parent="1" source="130" target="105" edge="1">
                    <mxGeometry relative="1" as="geometry">
                        <Array as="points">
                            <mxPoint x="422.75" y="-1026"/>
                        </Array>
                    </mxGeometry>
                </mxCell>
                <mxCell id="130" value="RÃ©ponse&lt;br&gt;&lt;br&gt;" style="rhombus;whiteSpace=wrap;html=1;rounded=0;shadow=0;glass=0;sketch=0;container=1;labelBackgroundColor=none;fillColor=#cdeb8b;strokeColor=#36393d;strokeWidth=2;fillStyle=solid;fontColor=#000000;" parent="1" vertex="1">
                    <mxGeometry x="362" y="-1260" width="120" height="100" as="geometry">
                        <mxRectangle x="388" y="-1281" width="84" height="42" as="alternateBounds"/>
                    </mxGeometry>
                </mxCell>
                <mxCell id="131" value="- idPPar" style="text;strokeColor=none;fillColor=none;align=left;verticalAlign=middle;spacingLeft=4;spacingRight=4;overflow=hidden;points=[[0,0.5],[1,0.5]];portConstraint=eastwest;rotatable=0;whiteSpace=wrap;html=1;labelBackgroundColor=none;fontColor=#000000;shadow=0;" parent="130" vertex="1">
                    <mxGeometry x="34.28571428571428" y="47.058823529411775" width="80" height="17.64705882352942" as="geometry"/>
                </mxCell>
                <mxCell id="132" value="- idPEnf" style="text;strokeColor=none;fillColor=none;align=left;verticalAlign=middle;spacingLeft=4;spacingRight=4;overflow=hidden;points=[[0,0.5],[1,0.5]];portConstraint=eastwest;rotatable=0;whiteSpace=wrap;html=1;labelBackgroundColor=none;fontColor=#000000;shadow=0;" parent="130" vertex="1">
                    <mxGeometry x="34.28571428571428" y="61.705882352941174" width="80" height="17.64705882352942" as="geometry"/>
                </mxCell>
                <mxCell id="144" value="Emoji" style="swimlane;fontStyle=0;childLayout=stackLayout;horizontal=1;startSize=30;horizontalStack=0;resizeParent=1;resizeParentMax=0;resizeLast=0;collapsible=1;marginBottom=0;whiteSpace=wrap;html=1;container=1;rounded=0;glass=0;shadow=0;labelBackgroundColor=none;fillColor=#cce5ff;strokeColor=#36393d;strokeWidth=2;fillStyle=solid;fontColor=#000000;" parent="1" vertex="1">
                    <mxGeometry x="515" y="-1206" width="140" height="150" as="geometry"/>
                </mxCell>
                <mxCell id="145" value="- &lt;u&gt;idEmo&lt;/u&gt;" style="text;strokeColor=none;fillColor=#FFFFFF;align=left;verticalAlign=middle;spacingLeft=4;spacingRight=4;overflow=hidden;points=[[0,0.5],[1,0.5]];portConstraint=eastwest;rotatable=0;whiteSpace=wrap;html=1;labelBackgroundColor=none;fontColor=#000000;rounded=0;glass=0;shadow=0;connectable=0;fillStyle=solid;" parent="144" vertex="1">
                    <mxGeometry y="30" width="140" height="30" as="geometry"/>
                </mxCell>
                <mxCell id="146" value="- nom" style="text;strokeColor=none;fillColor=#FFFFFF;align=left;verticalAlign=middle;spacingLeft=4;spacingRight=4;overflow=hidden;points=[[0,0.5],[1,0.5]];portConstraint=eastwest;rotatable=0;whiteSpace=wrap;html=1;labelBackgroundColor=none;fontColor=#000000;rounded=0;glass=0;shadow=0;connectable=0;fillStyle=solid;" parent="144" vertex="1">
                    <mxGeometry y="60" width="140" height="30" as="geometry"/>
                </mxCell>
                <mxCell id="228" value="- code" style="text;strokeColor=none;fillColor=#FFFFFF;align=left;verticalAlign=middle;spacingLeft=4;spacingRight=4;overflow=hidden;points=[[0,0.5],[1,0.5]];portConstraint=eastwest;rotatable=0;whiteSpace=wrap;html=1;labelBackgroundColor=none;fontColor=#000000;rounded=0;glass=0;shadow=0;connectable=0;fillStyle=solid;" parent="144" vertex="1">
                    <mxGeometry y="90" width="140" height="30" as="geometry"/>
                </mxCell>
                <mxCell id="147" value="- description" style="text;strokeColor=none;fillColor=#FFFFFF;align=left;verticalAlign=middle;spacingLeft=4;spacingRight=4;overflow=hidden;points=[[0,0.5],[1,0.5]];portConstraint=eastwest;rotatable=0;whiteSpace=wrap;html=1;labelBackgroundColor=none;fontColor=#000000;rounded=0;glass=0;shadow=0;connectable=0;fillStyle=solid;" parent="144" vertex="1">
                    <mxGeometry y="120" width="140" height="30" as="geometry"/>
                </mxCell>
                <mxCell id="158" style="edgeStyle=none;html=1;exitX=0.5;exitY=0;exitDx=0;exitDy=0;entryX=0.5;entryY=1;entryDx=0;entryDy=0;shadow=0;labelBackgroundColor=#FFFFFF;strokeColor=#000000;strokeWidth=2;fontColor=#000000;endArrow=none;endFill=0;" parent="1" source="151" target="144" edge="1">
                    <mxGeometry relative="1" as="geometry"/>
                </mxCell>
                <mxCell id="164" value="0-n" style="edgeLabel;html=1;align=center;verticalAlign=middle;resizable=0;points=[];fontColor=#000000;labelBackgroundColor=none;" parent="158" vertex="1" connectable="0">
                    <mxGeometry x="0.7648" y="-1" relative="1" as="geometry">
                        <mxPoint x="-13" y="2" as="offset"/>
                    </mxGeometry>
                </mxCell>
                <mxCell id="159" style="edgeStyle=none;html=1;exitX=0.5;exitY=1;exitDx=0;exitDy=0;entryX=1;entryY=0.5;entryDx=0;entryDy=0;shadow=0;labelBackgroundColor=#FFFFFF;strokeColor=#000000;strokeWidth=2;fontColor=#000000;endArrow=none;endFill=0;" parent="1" source="151" target="5" edge="1">
                    <mxGeometry relative="1" as="geometry">
                        <Array as="points">
                            <mxPoint x="585" y="-628"/>
                        </Array>
                    </mxGeometry>
                </mxCell>
                <mxCell id="166" value="0-n" style="edgeLabel;html=1;align=center;verticalAlign=middle;resizable=0;points=[];fontColor=#000000;labelBackgroundColor=none;" parent="159" vertex="1" connectable="0">
                    <mxGeometry x="0.9211" relative="1" as="geometry">
                        <mxPoint x="-7" y="-10" as="offset"/>
                    </mxGeometry>
                </mxCell>
                <mxCell id="151" value="RÃ©action&lt;br&gt;&lt;br&gt;&lt;br&gt;" style="rhombus;whiteSpace=wrap;html=1;rounded=0;shadow=0;glass=0;sketch=0;container=1;labelBackgroundColor=none;fillColor=#cdeb8b;strokeColor=#36393d;strokeWidth=2;fillStyle=solid;fontColor=#000000;" parent="1" vertex="1">
                    <mxGeometry x="525" y="-1023" width="120" height="100.00294117647073" as="geometry">
                        <mxRectangle x="388" y="-1281" width="84" height="42" as="alternateBounds"/>
                    </mxGeometry>
                </mxCell>
                <mxCell id="152" value="- idEmo" style="text;strokeColor=none;fillColor=none;align=left;verticalAlign=middle;spacingLeft=4;spacingRight=4;overflow=hidden;points=[[0,0.5],[1,0.5]];portConstraint=eastwest;rotatable=0;whiteSpace=wrap;html=1;labelBackgroundColor=none;fontColor=#000000;shadow=0;" parent="151" vertex="1">
                    <mxGeometry x="38.99571428571426" y="39.02882352941174" width="80" height="17.64705882352942" as="geometry"/>
                </mxCell>
                <mxCell id="153" value="- idPub" style="text;strokeColor=none;fillColor=none;align=left;verticalAlign=middle;spacingLeft=4;spacingRight=4;overflow=hidden;points=[[0,0.5],[1,0.5]];portConstraint=eastwest;rotatable=0;whiteSpace=wrap;html=1;labelBackgroundColor=none;fontColor=#000000;shadow=0;" parent="151" vertex="1">
                    <mxGeometry x="38.99571428571426" y="53.675882352941244" width="80" height="17.64705882352942" as="geometry"/>
                </mxCell>
                <mxCell id="154" value="- idUtil" style="text;strokeColor=none;fillColor=none;align=left;verticalAlign=middle;spacingLeft=4;spacingRight=4;overflow=hidden;points=[[0,0.5],[1,0.5]];portConstraint=eastwest;rotatable=0;whiteSpace=wrap;html=1;labelBackgroundColor=none;fontColor=#000000;shadow=0;" parent="151" vertex="1">
                    <mxGeometry x="38.99571428571426" y="67.32588235294133" width="80" height="17.64705882352942" as="geometry"/>
                </mxCell>
                <mxCell id="167" value="0-n" style="edgeLabel;html=1;align=center;verticalAlign=middle;resizable=0;points=[];fontColor=#000000;labelBackgroundColor=none;" parent="1" vertex="1" connectable="0">
                    <mxGeometry x="298.9970588235292" y="-681" as="geometry"/>
                </mxCell>
                <mxCell id="168" value="0-n" style="edgeLabel;html=1;align=center;verticalAlign=middle;resizable=0;points=[];fontColor=#000000;labelBackgroundColor=none;" parent="1" vertex="1" connectable="0">
                    <mxGeometry x="287.9970588235292" y="-610" as="geometry">
                        <mxPoint x="-14" y="-71" as="offset"/>
                    </mxGeometry>
                </mxCell>
                <mxCell id="169" value="0-n" style="edgeLabel;html=1;align=center;verticalAlign=middle;resizable=0;points=[];fontColor=#000000;labelBackgroundColor=none;" parent="1" vertex="1" connectable="0">
                    <mxGeometry x="366.7470588235292" y="-727" as="geometry"/>
                </mxCell>
                <mxCell id="170" value="0-n" style="edgeLabel;html=1;align=center;verticalAlign=middle;resizable=0;points=[];fontColor=#000000;labelBackgroundColor=none;" parent="1" vertex="1" connectable="0">
                    <mxGeometry x="178.9970588235292" y="-829" as="geometry"/>
                </mxCell>
                <mxCell id="171" value="0-n" style="edgeLabel;html=1;align=center;verticalAlign=middle;resizable=0;points=[];fontColor=#000000;labelBackgroundColor=none;" parent="1" vertex="1" connectable="0">
                    <mxGeometry x="356.9952958326057" y="-1037.0007107319032" as="geometry"/>
                </mxCell>
                <mxCell id="172" value="1-1" style="edgeLabel;html=1;align=center;verticalAlign=middle;resizable=0;points=[];fontColor=#000000;labelBackgroundColor=none;" parent="1" vertex="1" connectable="0">
                    <mxGeometry x="301.7452958326057" y="-1156.0007107319032" as="geometry">
                        <mxPoint x="105" y="5" as="offset"/>
                    </mxGeometry>
                </mxCell>
                <mxCell id="173" value="0-n" style="edgeLabel;html=1;align=center;verticalAlign=middle;resizable=0;points=[];fontColor=#000000;labelBackgroundColor=none;" parent="1" vertex="1" connectable="0">
                    <mxGeometry x="164.9970588235292" y="-601" as="geometry">
                        <mxPoint x="-134" y="4" as="offset"/>
                    </mxGeometry>
                </mxCell>
                <mxCell id="174" value="0-n" style="edgeLabel;html=1;align=center;verticalAlign=middle;resizable=0;points=[];fontColor=#000000;labelBackgroundColor=none;" parent="1" vertex="1" connectable="0">
                    <mxGeometry x="220.9970588235292" y="-698" as="geometry">
                        <mxPoint x="-134" y="4" as="offset"/>
                    </mxGeometry>
                </mxCell>
                <mxCell id="175" value="0-n" style="edgeLabel;html=1;align=center;verticalAlign=middle;resizable=0;points=[];fontColor=#000000;labelBackgroundColor=none;" parent="1" vertex="1" connectable="0">
                    <mxGeometry x="465.9970588235292" y="-535" as="geometry">
                        <mxPoint x="-134" y="4" as="offset"/>
                    </mxGeometry>
                </mxCell>
                <mxCell id="176" value="0-n" style="edgeLabel;html=1;align=center;verticalAlign=middle;resizable=0;points=[];fontColor=#000000;labelBackgroundColor=none;" parent="1" vertex="1" connectable="0">
                    <mxGeometry x="165.9970588235292" y="-481" as="geometry">
                        <mxPoint x="-134" y="4" as="offset"/>
                    </mxGeometry>
                </mxCell>
                <mxCell id="177" value="1-n" style="edgeLabel;html=1;align=center;verticalAlign=middle;resizable=0;points=[];fontColor=#000000;labelBackgroundColor=none;" parent="1" vertex="1" connectable="0">
                    <mxGeometry x="150.9970588235292" y="-917" as="geometry">
                        <mxPoint x="-134" y="4" as="offset"/>
                    </mxGeometry>
                </mxCell>
                <mxCell id="178" value="1-n" style="edgeLabel;html=1;align=center;verticalAlign=middle;resizable=0;points=[];fontColor=#000000;labelBackgroundColor=none;" parent="1" vertex="1" connectable="0">
                    <mxGeometry x="326.9970588235292" y="-1040" as="geometry">
                        <mxPoint x="-134" y="4" as="offset"/>
                    </mxGeometry>
                </mxCell>
                <mxCell id="179" value="1-n" style="edgeLabel;html=1;align=center;verticalAlign=middle;resizable=0;points=[];fontColor=#000000;labelBackgroundColor=none;" parent="1" vertex="1" connectable="0">
                    <mxGeometry x="36.99705882352919" y="-667" as="geometry">
                        <mxPoint x="-134" y="4" as="offset"/>
                    </mxGeometry>
                </mxCell>
                <mxCell id="180" value="1-1" style="edgeLabel;html=1;align=center;verticalAlign=middle;resizable=0;points=[];fontColor=#000000;labelBackgroundColor=none;" parent="1" vertex="1" connectable="0">
                    <mxGeometry x="-67.00294117647081" y="-923" as="geometry">
                        <mxPoint x="-134" y="4" as="offset"/>
                    </mxGeometry>
                </mxCell>
                <mxCell id="181" value="0-n" style="edgeLabel;html=1;align=center;verticalAlign=middle;resizable=0;points=[];fontColor=#000000;labelBackgroundColor=none;" parent="1" vertex="1" connectable="0">
                    <mxGeometry x="-2.002941176470813" y="-917" as="geometry">
                        <mxPoint x="-134" y="4" as="offset"/>
                    </mxGeometry>
                </mxCell>
                <mxCell id="183" value="0-n" style="edgeLabel;html=1;align=center;verticalAlign=middle;resizable=0;points=[];fontColor=#000000;labelBackgroundColor=none;" parent="1" vertex="1" connectable="0">
                    <mxGeometry x="37.99705882352919" y="-984" as="geometry">
                        <mxPoint x="-134" y="4" as="offset"/>
                    </mxGeometry>
                </mxCell>
                <mxCell id="184" value="0-n" style="edgeLabel;html=1;align=center;verticalAlign=middle;resizable=0;points=[];fontColor=#000000;labelBackgroundColor=none;" parent="1" vertex="1" connectable="0">
                    <mxGeometry x="100.99705882352919" y="-916" as="geometry">
                        <mxPoint x="-134" y="4" as="offset"/>
                    </mxGeometry>
                </mxCell>
                <mxCell id="185" value="0-n" style="edgeLabel;html=1;align=center;verticalAlign=middle;resizable=0;points=[];fontColor=#000000;labelBackgroundColor=none;" parent="1" vertex="1" connectable="0">
                    <mxGeometry x="37.99705882352919" y="-876" as="geometry">
                        <mxPoint x="-134" y="4" as="offset"/>
                    </mxGeometry>
                </mxCell>
                <mxCell id="186" value="1-n" style="edgeLabel;html=1;align=center;verticalAlign=middle;resizable=0;points=[];fontColor=#000000;labelBackgroundColor=none;" parent="1" vertex="1" connectable="0">
                    <mxGeometry x="1.997058823529187" y="-601" as="geometry">
                        <mxPoint x="-134" y="4" as="offset"/>
                    </mxGeometry>
                </mxCell>
                <mxCell id="188" value="" style="endArrow=none;dashed=1;html=1;dashPattern=1 3;strokeWidth=2;shadow=0;labelBackgroundColor=#FFFFFF;strokeColor=#000000;fontColor=#000000;" parent="1" edge="1">
                    <mxGeometry width="50" height="50" relative="1" as="geometry">
                        <mxPoint x="-147" y="-420" as="sourcePoint"/>
                        <mxPoint x="-147" y="-513" as="targetPoint"/>
                    </mxGeometry>
                </mxCell>
                <mxCell id="189" value="TotalitÃ©" style="edgeLabel;html=1;align=center;verticalAlign=middle;resizable=0;points=[];fontColor=#000000;labelBackgroundColor=none;" parent="188" vertex="1" connectable="0">
                    <mxGeometry x="-0.5777" relative="1" as="geometry">
                        <mxPoint x="-22" y="-57" as="offset"/>
                    </mxGeometry>
                </mxCell>
                <mxCell id="190" value="0-n" style="edgeLabel;html=1;align=center;verticalAlign=middle;resizable=0;points=[];fontColor=#000000;labelBackgroundColor=none;" parent="1" vertex="1" connectable="0">
                    <mxGeometry x="-275.0029411764708" y="-601" as="geometry">
                        <mxPoint x="-134" y="4" as="offset"/>
                    </mxGeometry>
                </mxCell>
                <mxCell id="192" value="1-n" style="edgeLabel;html=1;align=center;verticalAlign=middle;resizable=0;points=[];fontColor=#000000;labelBackgroundColor=none;" parent="1" vertex="1" connectable="0">
                    <mxGeometry x="-155.0029411764708" y="-453" as="geometry">
                        <mxPoint x="-134" y="4" as="offset"/>
                    </mxGeometry>
                </mxCell>
                <mxCell id="193" value="1-1" style="edgeLabel;html=1;align=center;verticalAlign=middle;resizable=0;points=[];fontColor=#000000;labelBackgroundColor=none;" parent="1" vertex="1" connectable="0">
                    <mxGeometry x="-189.0029411764708" y="-453" as="geometry">
                        <mxPoint x="-134" y="4" as="offset"/>
                    </mxGeometry>
                </mxCell>
                <mxCell id="194" value="1-n" style="edgeLabel;html=1;align=center;verticalAlign=middle;resizable=0;points=[];fontColor=#000000;labelBackgroundColor=none;" parent="1" vertex="1" connectable="0">
                    <mxGeometry x="-228.0029411764708" y="-374" as="geometry">
                        <mxPoint x="-134" y="4" as="offset"/>
                    </mxGeometry>
                </mxCell>
                <mxCell id="195" value="1-1" style="edgeLabel;html=1;align=center;verticalAlign=middle;resizable=0;points=[];fontColor=#000000;labelBackgroundColor=none;" parent="1" vertex="1" connectable="0">
                    <mxGeometry x="-228.0029411764708" y="-349" as="geometry">
                        <mxPoint x="-134" y="4" as="offset"/>
                    </mxGeometry>
                </mxCell>
                <mxCell id="202" style="edgeStyle=none;html=1;exitX=0.5;exitY=0;exitDx=0;exitDy=0;entryX=0.5;entryY=1;entryDx=0;entryDy=0;strokeColor=#000000;strokeWidth=2;endArrow=diamondThin;endFill=1;" parent="1" source="196" target="15" edge="1">
                    <mxGeometry relative="1" as="geometry"/>
                </mxCell>
                <mxCell id="196" value="Studio" style="swimlane;fontStyle=0;childLayout=stackLayout;horizontal=1;startSize=30;horizontalStack=0;resizeParent=1;resizeParentMax=0;resizeLast=0;collapsible=1;marginBottom=0;whiteSpace=wrap;html=1;container=1;rounded=0;glass=0;shadow=0;labelBackgroundColor=none;fillColor=#cce5ff;strokeColor=#36393d;strokeWidth=2;fillStyle=solid;fontColor=#000000;" parent="1" vertex="1">
                    <mxGeometry x="-104" y="-338" width="110" height="180" as="geometry"/>
                </mxCell>
                <mxCell id="197" value="-&amp;nbsp;&lt;u&gt;idStud&lt;/u&gt;" style="text;strokeColor=none;fillColor=#FFFFFF;align=left;verticalAlign=middle;spacingLeft=4;spacingRight=4;overflow=hidden;points=[[0,0.5],[1,0.5]];portConstraint=eastwest;rotatable=0;whiteSpace=wrap;html=1;labelBackgroundColor=none;fontColor=#000000;rounded=0;glass=0;shadow=0;connectable=0;fillStyle=solid;" parent="196" vertex="1">
                    <mxGeometry y="30" width="110" height="30" as="geometry"/>
                </mxCell>
                <mxCell id="205" value="- nom" style="text;strokeColor=none;fillColor=#FFFFFF;align=left;verticalAlign=middle;spacingLeft=4;spacingRight=4;overflow=hidden;points=[[0,0.5],[1,0.5]];portConstraint=eastwest;rotatable=0;whiteSpace=wrap;html=1;labelBackgroundColor=none;fontColor=#000000;rounded=0;glass=0;shadow=0;connectable=0;fillStyle=solid;" parent="196" vertex="1">
                    <mxGeometry y="60" width="110" height="30" as="geometry"/>
                </mxCell>
                <mxCell id="198" value="- dateCreation" style="text;strokeColor=none;fillColor=#FFFFFF;align=left;verticalAlign=middle;spacingLeft=4;spacingRight=4;overflow=hidden;points=[[0,0.5],[1,0.5]];portConstraint=eastwest;rotatable=0;whiteSpace=wrap;html=1;labelBackgroundColor=none;fontColor=#000000;rounded=0;glass=0;shadow=0;connectable=0;fillStyle=solid;" parent="196" vertex="1">
                    <mxGeometry y="90" width="110" height="30" as="geometry"/>
                </mxCell>
                <mxCell id="200" value="- ville" style="text;strokeColor=none;fillColor=#FFFFFF;align=left;verticalAlign=middle;spacingLeft=4;spacingRight=4;overflow=hidden;points=[[0,0.5],[1,0.5]];portConstraint=eastwest;rotatable=0;whiteSpace=wrap;html=1;labelBackgroundColor=none;fontColor=#000000;rounded=0;glass=0;shadow=0;connectable=0;fillStyle=solid;" parent="196" vertex="1">
                    <mxGeometry y="120" width="110" height="30" as="geometry"/>
                </mxCell>
                <mxCell id="201" value="- pays" style="text;strokeColor=none;fillColor=#FFFFFF;align=left;verticalAlign=middle;spacingLeft=4;spacingRight=4;overflow=hidden;points=[[0,0.5],[1,0.5]];portConstraint=eastwest;rotatable=0;whiteSpace=wrap;html=1;labelBackgroundColor=none;fontColor=#000000;rounded=0;glass=0;shadow=0;connectable=0;fillStyle=solid;" parent="196" vertex="1">
                    <mxGeometry y="150" width="110" height="30" as="geometry"/>
                </mxCell>
                <mxCell id="203" value="1-1" style="edgeLabel;html=1;align=center;verticalAlign=middle;resizable=0;points=[];fontColor=#000000;labelBackgroundColor=none;" parent="1" vertex="1" connectable="0">
                    <mxGeometry x="69.99705882352919" y="-405" as="geometry">
                        <mxPoint x="-134" y="4" as="offset"/>
                    </mxGeometry>
                </mxCell>
                <mxCell id="204" value="0-n" style="edgeLabel;html=1;align=center;verticalAlign=middle;resizable=0;points=[];fontColor=#000000;labelBackgroundColor=none;" parent="1" vertex="1" connectable="0">
                    <mxGeometry x="71.99705882352919" y="-352" as="geometry">
                        <mxPoint x="-134" y="4" as="offset"/>
                    </mxGeometry>
                </mxCell>
                <mxCell id="216" style="edgeStyle=none;html=1;exitX=0;exitY=0.5;exitDx=0;exitDy=0;entryX=0;entryY=0;entryDx=0;entryDy=0;strokeColor=#000000;strokeWidth=2;endArrow=none;endFill=0;" parent="1" source="207" target="15" edge="1">
                    <mxGeometry relative="1" as="geometry">
                        <Array as="points">
                            <mxPoint x="-336" y="-1083"/>
                            <mxPoint x="-336" y="-648"/>
                        </Array>
                    </mxGeometry>
                </mxCell>
                <mxCell id="207" value="MentionOeuvre&lt;br&gt;&lt;br&gt;" style="rhombus;whiteSpace=wrap;html=1;rounded=0;shadow=0;glass=0;sketch=0;container=1;labelBackgroundColor=none;fillColor=#cdeb8b;strokeColor=#36393d;strokeWidth=2;fillStyle=solid;fontColor=#000000;" parent="1" vertex="1">
                    <mxGeometry x="-92" y="-1133" width="120" height="100" as="geometry"/>
                </mxCell>
                <mxCell id="208" value="- idPub" style="text;strokeColor=none;fillColor=none;align=left;verticalAlign=middle;spacingLeft=4;spacingRight=4;overflow=hidden;points=[[0,0.5],[1,0.5]];portConstraint=eastwest;rotatable=0;whiteSpace=wrap;html=1;labelBackgroundColor=none;fontColor=#000000;shadow=0;" parent="207" vertex="1">
                    <mxGeometry x="34.28571428571428" y="47.058823529411775" width="80" height="17.64705882352942" as="geometry"/>
                </mxCell>
                <mxCell id="209" value="- idOeuv" style="text;strokeColor=none;fillColor=none;align=left;verticalAlign=middle;spacingLeft=4;spacingRight=4;overflow=hidden;points=[[0,0.5],[1,0.5]];portConstraint=eastwest;rotatable=0;whiteSpace=wrap;html=1;labelBackgroundColor=none;fontColor=#000000;shadow=0;" parent="207" vertex="1">
                    <mxGeometry x="34.28571428571428" y="64.70588235294117" width="80" height="17.64705882352942" as="geometry"/>
                </mxCell>
                <mxCell id="213" style="edgeStyle=none;html=1;exitX=0.5;exitY=0;exitDx=0;exitDy=0;entryX=1;entryY=0.75;entryDx=0;entryDy=0;strokeWidth=2;strokeColor=#000000;endArrow=none;endFill=0;" parent="1" source="210" target="5" edge="1">
                    <mxGeometry relative="1" as="geometry">
                        <Array as="points">
                            <mxPoint x="273" y="-1344"/>
                            <mxPoint x="714" y="-1344"/>
                            <mxPoint x="714" y="-583"/>
                        </Array>
                    </mxGeometry>
                </mxCell>
                <mxCell id="214" style="edgeStyle=none;html=1;exitX=0.5;exitY=1;exitDx=0;exitDy=0;entryX=0.5;entryY=0;entryDx=0;entryDy=0;strokeColor=#000000;strokeWidth=2;endArrow=none;endFill=0;" parent="1" source="210" target="105" edge="1">
                    <mxGeometry relative="1" as="geometry"/>
                </mxCell>
                <mxCell id="210" value="MentionUtilisateur&lt;br&gt;&lt;br&gt;" style="rhombus;whiteSpace=wrap;html=1;rounded=0;shadow=0;glass=0;sketch=0;container=1;labelBackgroundColor=none;fillColor=#cdeb8b;strokeColor=#36393d;strokeWidth=2;fillStyle=solid;fontColor=#000000;" parent="1" vertex="1">
                    <mxGeometry x="215" y="-1260" width="120" height="100" as="geometry"/>
                </mxCell>
                <mxCell id="211" value="- idPub" style="text;strokeColor=none;fillColor=none;align=left;verticalAlign=middle;spacingLeft=4;spacingRight=4;overflow=hidden;points=[[0,0.5],[1,0.5]];portConstraint=eastwest;rotatable=0;whiteSpace=wrap;html=1;labelBackgroundColor=none;fontColor=#000000;shadow=0;" parent="210" vertex="1">
                    <mxGeometry x="34.28571428571428" y="47.058823529411775" width="80" height="17.64705882352942" as="geometry"/>
                </mxCell>
                <mxCell id="212" value="- idUtil" style="text;strokeColor=none;fillColor=none;align=left;verticalAlign=middle;spacingLeft=4;spacingRight=4;overflow=hidden;points=[[0,0.5],[1,0.5]];portConstraint=eastwest;rotatable=0;whiteSpace=wrap;html=1;labelBackgroundColor=none;fontColor=#000000;shadow=0;" parent="210" vertex="1">
                    <mxGeometry x="34.28571428571428" y="64.70588235294117" width="80" height="17.64705882352942" as="geometry"/>
                </mxCell>
                <mxCell id="215" style="edgeStyle=none;html=1;entryX=0;entryY=0.25;entryDx=0;entryDy=0;strokeColor=#000000;strokeWidth=2;endArrow=none;endFill=0;exitX=1;exitY=0.5;exitDx=0;exitDy=0;" parent="1" source="207" target="105" edge="1">
                    <mxGeometry relative="1" as="geometry">
                        <mxPoint x="21" y="-1092" as="sourcePoint"/>
                        <Array as="points"/>
                    </mxGeometry>
                </mxCell>
                <mxCell id="217" value="0-n" style="edgeLabel;html=1;align=center;verticalAlign=middle;resizable=0;points=[];fontColor=#000000;labelBackgroundColor=none;" parent="1" vertex="1" connectable="0">
                    <mxGeometry x="325.9970588235292" y="-1092" as="geometry">
                        <mxPoint x="-134" y="4" as="offset"/>
                    </mxGeometry>
                </mxCell>
                <mxCell id="218" value="0-n" style="edgeLabel;html=1;align=center;verticalAlign=middle;resizable=0;points=[];fontColor=#000000;labelBackgroundColor=none;" parent="1" vertex="1" connectable="0">
                    <mxGeometry x="421.9970588235292" y="-1144" as="geometry">
                        <mxPoint x="-134" y="4" as="offset"/>
                    </mxGeometry>
                </mxCell>
                <mxCell id="219" value="0-n" style="edgeLabel;html=1;align=center;verticalAlign=middle;resizable=0;points=[];fontColor=#000000;labelBackgroundColor=none;" parent="1" vertex="1" connectable="0">
                    <mxGeometry x="2.997058823529187" y="-644" as="geometry">
                        <mxPoint x="-134" y="4" as="offset"/>
                    </mxGeometry>
                </mxCell>
                <mxCell id="220" value="0-n" style="edgeLabel;html=1;align=center;verticalAlign=middle;resizable=0;points=[];fontColor=#000000;labelBackgroundColor=none;" parent="1" vertex="1" connectable="0">
                    <mxGeometry x="465.99300476947525" y="-591" as="geometry">
                        <mxPoint x="-6" as="offset"/>
                    </mxGeometry>
                </mxCell>
                <mxCell id="224" style="edgeStyle=none;html=1;exitX=1;exitY=0.5;exitDx=0;exitDy=0;entryX=0.25;entryY=0;entryDx=0;entryDy=0;strokeColor=#000000;strokeWidth=2;endArrow=none;endFill=0;" parent="1" source="221" target="105" edge="1">
                    <mxGeometry relative="1" as="geometry">
                        <Array as="points">
                            <mxPoint x="241" y="-1176"/>
                        </Array>
                    </mxGeometry>
                </mxCell>
                <mxCell id="226" style="edgeStyle=none;html=1;exitX=0;exitY=0.5;exitDx=0;exitDy=0;entryX=0.5;entryY=0;entryDx=0;entryDy=0;strokeColor=#000000;strokeWidth=2;endArrow=none;endFill=0;" parent="1" source="221" target="93" edge="1">
                    <mxGeometry relative="1" as="geometry">
                        <Array as="points">
                            <mxPoint x="-497" y="-1176"/>
                        </Array>
                    </mxGeometry>
                </mxCell>
                <mxCell id="221" value="MentionPersonne&lt;br&gt;&lt;br&gt;" style="rhombus;whiteSpace=wrap;html=1;rounded=0;shadow=0;glass=0;sketch=0;container=1;labelBackgroundColor=none;fillColor=#cdeb8b;strokeColor=#36393d;strokeWidth=2;fillStyle=solid;fontColor=#000000;" parent="1" vertex="1">
                    <mxGeometry x="-2" y="-1226" width="120" height="100" as="geometry"/>
                </mxCell>
                <mxCell id="222" value="- idPub" style="text;strokeColor=none;fillColor=none;align=left;verticalAlign=middle;spacingLeft=4;spacingRight=4;overflow=hidden;points=[[0,0.5],[1,0.5]];portConstraint=eastwest;rotatable=0;whiteSpace=wrap;html=1;labelBackgroundColor=none;fontColor=#000000;shadow=0;" parent="221" vertex="1">
                    <mxGeometry x="34.28571428571428" y="47.058823529411775" width="80" height="17.64705882352942" as="geometry"/>
                </mxCell>
                <mxCell id="223" value="- idPers" style="text;strokeColor=none;fillColor=none;align=left;verticalAlign=middle;spacingLeft=4;spacingRight=4;overflow=hidden;points=[[0,0.5],[1,0.5]];portConstraint=eastwest;rotatable=0;whiteSpace=wrap;html=1;labelBackgroundColor=none;fontColor=#000000;shadow=0;" parent="221" vertex="1">
                    <mxGeometry x="34.28571428571428" y="64.70588235294117" width="80" height="17.64705882352942" as="geometry"/>
                </mxCell>
                <mxCell id="225" value="0-n" style="edgeLabel;html=1;align=center;verticalAlign=middle;resizable=0;points=[];fontColor=#000000;labelBackgroundColor=none;" parent="1" vertex="1" connectable="0">
                    <mxGeometry x="360.9970588235292" y="-1142" as="geometry">
                        <mxPoint x="-134" y="4" as="offset"/>
                    </mxGeometry>
                </mxCell>
                <mxCell id="227" value="0-n" style="edgeLabel;html=1;align=center;verticalAlign=middle;resizable=0;points=[];fontColor=#000000;labelBackgroundColor=none;" parent="1" vertex="1" connectable="0">
                    <mxGeometry x="-352.0029411764708" y="-706" as="geometry">
                        <mxPoint x="-134" y="4" as="offset"/>
                    </mxGeometry>
                </mxCell>
            </root>
        </mxGraphModel>
    </diagram>
</mxfile>